<svg xmlns="http://www.w3.org/2000/svg" xmlns:xlink="http://www.w3.org/1999/xlink" id="Layer_1" x="0px" y="0px" viewBox="0 0 1440 900" style="enable-background:new 0 0 1440 900;" xml:space="preserve"><style type="text/css">	.st0{fill-rule:evenodd;clip-rule:evenodd;fill:#13A946;}	.st1{fill:#13A946;}</style><g>	<path class="st0" d="M703,380.6c3.8,8.7-4.7,8.8-7,8.2c-3.5-0.8-14.6-1-18.5-1.3c-6.2-0.5-12.6-0.5-18.9-0.7  c-12.4-0.4-25.4,0.5-37.6,1.1l-9,0.7c-3.6,1.5-7.7-0.1-8.5-3.4c-0.9-3.6,1.4-6.9,2.5-9.5c2.4-5.6,41.6-90.5,43-93.3  c1.3-2.7,2.1-6.3,6-6.3c3.5,0,5,3.4,6.2,6.1 M377.1,170.8c116.6-86.9,290-98.9,426-58.8c24.4,7.2,49.3,17.6,71.9,29.1  c69.9,35.8,134.8,98.4,139.1,180.8c4,76-45,135.1-103.1,175.5c-13.3,9.2-30.9,19.1-45.7,26.2c-31.2,15.1-60.4,24.4-94.7,32.8  c-125.5,30.7-293.9,10.5-397.5-70.3c-1.9-1.5-7.5-6.4-9.2-6.9c-63.4-59.1-100.9-127.1-64.8-214c1.8-4.3,3.8-8.6,5.9-12.8  C320.7,220.9,348.9,191.8,377.1,170.8z M493.2,481.3l2.1-4.7c3-6.8,6.6-14.6,9.7-21.3l125.2-276.9c3.8-8.5,9.5-23.6,15.5-29.6  c8.8-9,17.6-3.9,23,5.4c21.5,50.4,119.3,283.6,145,338.2c0.8,1.6,1.5,3.1,2.1,4.4c3.5,7.2,3.4,9.1,12.2,6.6c2.7-0.8,5.3-2,6.4-3.3  c4.4-0.6,31.9-21,36.4-24.6c43.4-35.4,75.8-86.4,76.8-143.2c0.2-9.2-0.5-23.8-2.7-32.4c-7.5-50.7-43.7-94.3-83.3-124.7  c-25.8-19.7-61.9-36.8-94.2-46.9C686.2,103,605,106,524.9,132.4c-10.7,3.5-22.9,8.8-32.6,13.5c-96.1,50.6-171.5,144.7-119,254.2  c1.2,2.6,12.7,24.9,16,27.1c0.7,3.2,15.5,20.4,18.2,23.3c15.7,17.3,26.5,25.5,44.8,38.6c2.4,1.7,16.2,10.8,19.2,11.7  c5.1,1.5,7.2,0.9,10.6-0.9C485.1,498.3,488,492.8,493.2,481.3z M752,534c-61.2,13.6-122,18.4-184.1,3.4c-3.4-0.8-7.7-2-10.8-2.6  l-10.3-2.6c-3.3-0.5-4.8-1.5-6.2-3.9c-3.4-5.6-0.1-10.6,2.1-15.3l21.6-47.1c4.2-9.3,7.1-18.5,16.5-22.3  c20.3-8.2,125.1-9.3,142.8,0.6c3.4,1.9,8.9,5.6,10,9.7c1.9,2.8,13.9,31.4,15.4,35.1l11.4,26.8C763.9,523.6,759.9,532.6,752,534z"></path>	<path class="st0" d="M1079.9,750.6c0,10.4,2.5,18.6,7.5,24.7c5,6.1,11.6,9.2,19.8,9.2c8.4,0,15-3.1,19.9-9.3s7.3-14.7,7.3-25.5  c0-10.1-2.5-18.1-7.5-24.2c-5-6-11.6-9-19.8-9c-8.2,0-14.8,3.1-19.8,9.2C1082.3,731.8,1079.9,740.1,1079.9,750.6 M1135,710.3V652  h34.7v155.2H1135v-20c-3.6,7.8-8.4,13.6-14.7,17.2c-6.2,3.7-13.9,5.5-23,5.5c-15.8,0-28.5-5.4-38.2-16.2s-14.6-25.1-14.6-42.8  c0-18,5-32.6,15-43.7c10-11.1,23.2-16.6,39.5-16.6c8.4,0,15.3,1.5,20.7,4.5C1125.1,698.2,1130.2,703.2,1135,710.3z M903.7,693.7  h34.7v16.8c1-1.3,2-2.5,2.9-3.5c0.9-1.1,1.9-2.1,2.9-3.1c4.8-4.8,9.8-8.2,15-10.2s11.5-3,18.8-3c9.2,0,17.6,2,25,6.1  c7.5,4,12.5,9.2,15.2,15.4c1.3,3,2.2,6.3,2.8,10c0.6,3.7,0.9,8.4,0.9,14.3v70.7H987v-68.1c0-7.7-1.7-13.3-5.1-17s-8.7-5.5-16-5.5  c-10.9,0-18.2,3.3-21.8,9.8s-5.5,13.7-5.6,21.5c0,0.3,0,0.6,0,0.9c0,0.3,0,0.6,0,0.9v57.7h-34.8V693.7z M780.5,750.4  c0,11.1,2.9,19.8,8.6,26.3c5.8,6.5,13.5,9.7,23.3,9.7c9.7,0,17.3-3.2,23-9.7s8.5-15.2,8.5-26.1c0-11.1-2.8-19.8-8.5-26.3  s-13.3-9.7-23-9.7c-9.8,0-17.6,3.2-23.3,9.7C783.3,730.7,780.5,739.4,780.5,750.4z M745.1,750.4c0-18.3,6-32.8,18.1-43.5  s28.4-16.1,49-16.1c20.7,0,37.1,5.4,49.2,16.1c12.1,10.7,18.1,25.3,18.1,43.8c0,18.3-6,32.8-18.1,43.4c-12.1,10.6-28.5,16-49.2,16  c-20.6,0-36.9-5.3-49-16S745.1,768.8,745.1,750.4z M694.2,750.4c0-10.9-2.3-19.3-7-25.1s-11.3-8.7-19.8-8.7  c-8.7,0-15.4,2.9-20.1,8.7c-4.8,5.8-7.1,14.2-7.1,25.1c0,10.9,2.4,19.3,7.1,25.2c4.8,5.9,11.5,8.8,20.1,8.8  c8.5,0,15.1-2.9,19.8-8.8C691.9,769.7,694.2,761.3,694.2,750.4z M604.3,652H639v59c1.1-1.4,2.3-2.8,3.5-4c1.2-1.3,2.4-2.4,3.5-3.4  c5-4.5,10-7.8,15.1-9.8s11-3,17.7-3c15.5,0,27.8,5.3,37.1,15.8c9.2,10.5,13.8,24.5,13.8,42c0,18.6-4.8,33.5-14.4,44.7  c-9.6,11.2-22.4,16.8-38.4,16.8c-8.5,0-15.7-1.7-21.4-5S644.3,796,639,788v19.4h-34.7L604.3,652L604.3,652z M541.3,754.2  c-3.1,0.4-5.9,0.8-8.2,1.1s-4.4,0.5-6.3,0.6c-1.1,0.3-2.2,0.5-3.1,0.6c-0.9,0.1-1.9,0.3-2.9,0.4c-0.9,0.1-1.7,0.3-2.5,0.4  c-0.8,0.1-1.6,0.3-2.4,0.4c-8.2,1.4-14,3.3-17.1,5.6c-3.2,2.3-4.8,5.7-4.8,10.1c0,3.8,1.7,6.9,5,9.3c3.3,2.3,7.7,3.5,13.1,3.5  c12.1,0,19.9-3.1,23.6-9.4C539.5,770.7,541.3,763.2,541.3,754.2z M463.4,730.1c0.7-13.5,5.7-23.4,15-29.8  c9.3-6.4,23.2-9.6,41.6-9.6c13.3,0,24.4,1.5,33,4.5c8.7,3,14.8,7.5,18.3,13.6c0,0.1,0,0.2,0.1,0.3s0.1,0.1,0.1,0.1  c1.7,2.7,2.8,5.7,3.4,8.9c0.6,3.3,0.9,8.1,0.9,14.5v51.5v5.5c0,4,0.5,7.3,1.5,10.1s2.6,5.2,4.9,7.3h-35.3c-0.9-1.1-1.6-2.1-2.1-3  c-0.6-0.9-1.1-1.7-1.5-2.6c-0.7-1.3-1.2-2.7-1.5-4.2s-0.4-3.3-0.4-5.4c-2.3,2.3-4.4,4.3-6.5,6s-4.2,3.2-6.3,4.5  c-4.4,2.8-8.9,4.8-13.6,5.9c-4.7,1.1-10.4,1.6-17,1.6c-11.5,0-20.8-3.1-27.9-9.3c-7.1-6.2-10.6-14.3-10.6-24.4  c0-9.8,2.8-17.6,8.4-23.3c5.6-5.7,14.4-9.8,26.5-12c6.2-1.1,13.2-2.2,20.9-3.2s16.1-1.8,25.3-2.6c0-6.8-1.1-12-3.2-15.4  c-2.1-3.5-7.8-5.2-17-5.2c-7.7,0-13.4,1.2-17.1,3.5c-3.8,2.3-6.2,6.4-7.3,12h-32.6V730.1z M318.6,693.7h34.7v16.8  c1-1.3,2-2.5,2.9-3.5c0.9-1.1,1.9-2.1,2.9-3.1c4.8-4.8,9.8-8.2,15-10.2s11.5-3,18.8-3c9.2,0,17.6,2,25,6.1  c7.5,4,12.5,9.2,15.2,15.4c1.3,3,2.2,6.3,2.8,10c0.6,3.7,0.9,8.4,0.9,14.3v70.7h-34.9v-68.1c0-7.7-1.7-13.3-5.1-17s-8.7-5.5-16-5.5  c-10.9,0-18.2,3.3-21.8,9.8c-3.6,6.5-5.5,13.7-5.6,21.5c0,0.3,0,0.6,0,0.9c0,0.3,0,0.6,0,0.9v57.7h-34.7L318.6,693.7L318.6,693.7z   M190.8,748.5h44.9l-22.4-60.9L190.8,748.5z M129.7,807.2L193.4,652h41.3l63,155.2h-40l-12.1-32.6h-64.9l-12.4,32.6H129.7z"></path></g><g>	<path class="st1" d="M1186,640.6c0-11.9,9.4-21.4,21.4-21.4c11.8,0,21.3,9.5,21.3,21.4c0,11.8-9.4,21.4-21.3,21.4  C1195.4,662.1,1186,652.5,1186,640.6z M1207.3,657.6c9.4,0,16.7-7.5,16.7-16.9c0-9.5-7.3-17-16.7-17c-9.5,0-16.8,7.6-16.8,17  C1190.5,650.1,1197.8,657.6,1207.3,657.6z M1198.9,630.7c0-0.4,0.3-0.6,0.7-0.6h9.5c5,0,8.4,2.5,8.4,7c0,3.8-2.3,6.1-6,6.8l6,6.5  c0.4,0.4,0.2,0.9-0.4,0.9h-3.3c-0.4,0-0.6-0.2-0.8-0.5l-6.1-6.7h-4v6.5c0,0.4-0.3,0.7-0.6,0.7h-2.8c-0.4,0-0.7-0.3-0.7-0.7V630.7z   M1209.3,640.6c2.8,0,4-1.5,4-3.5c0-2.1-1.2-3.5-4-3.5h-6.3v7H1209.3z"></path></g></svg>